<svg width="562" height="546" viewBox="0 0 562 546" fill="none" xmlns="http://www.w3.org/2000/svg">
<rect width="562" height="546" rx="25" fill="#F24E1E"/>
<path d="M370.072 221.149C367.343 213.113 362.163 206.134 355.26 201.196C348.357 196.257 340.08 193.608 331.593 193.62H299V97.164L285.303 99.1208C254.231 103.559 230.028 119.305 213.373 145.921C201.364 165.106 195.782 186.271 193.192 202.1C175.306 215.861 159.747 234.809 146.888 258.5C136.051 278.464 127.081 301.862 120.224 328.047C108.639 372.289 107.071 408.988 107.01 410.528L107.004 453H131V411.273C131.3 405.1 138.857 270.01 211.274 218.571L215.519 215.555L216.217 210.395C219.828 183.675 232.308 139.544 275 125.978V217.62H331.593C335.063 217.61 338.449 218.688 341.274 220.702C344.099 222.717 346.222 225.567 347.343 228.851C356.911 257.093 373.351 292.433 398.972 309.041L391.267 337.937C388.584 348.242 382.484 357.332 373.963 363.718C365.442 370.104 355.005 373.408 344.362 373.09C322.861 372.445 300.482 375.25 277.845 381.423L269 383.834V453H293V402.351C309.585 398.433 326.604 396.661 343.64 397.078C359.684 397.521 375.407 392.531 388.26 382.919C401.113 373.307 410.343 359.635 414.454 344.121L427.27 296.06L417.725 291.97C399.875 284.32 382.952 259.168 370.072 221.149Z" fill="white"/>
</svg>
